<svg xmlns="http://www.w3.org/2000/svg" xmlns:xlink="http://www.w3.org/1999/xlink" width="3840" zoomAndPan="magnify" viewBox="0 0 2880 2879.999992" height="3840" preserveAspectRatio="xMidYMid meet" version="1.0"><defs><clipPath id="939e5a78f0"><path d="M 0 0.226562 L 1740.472656 0.226562 L 1740.472656 2747.773438 L 0 2747.773438 Z M 0 0.226562 " clip-rule="nonzero"/></clipPath><clipPath id="4dfb7a5a39"><rect x="0" width="1741" y="0" height="2748"/></clipPath><clipPath id="4c97167682"><path d="M 1138.742188 0.226562 L 2879.210938 0.226562 L 2879.210938 2747.773438 L 1138.742188 2747.773438 Z M 1138.742188 0.226562 " clip-rule="nonzero"/></clipPath><clipPath id="4ce27e89d8"><rect x="0" width="1742" y="0" height="2748"/></clipPath><clipPath id="72cb06790f"><rect x="0" width="2880" y="0" height="2748"/></clipPath></defs><g transform="matrix(1, 0, 0, 1, 0, 66)"><g clip-path="url(#72cb06790f)"><g clip-path="url(#939e5a78f0)"><g transform="matrix(1, 0, 0, 1, 0, -0.000000000000468958)"><g clip-path="url(#4dfb7a5a39)"><path fill="#ffffff" d="M 1430.453125 2.207031 C 1496.160156 2.207031 1562.132812 22.402344 1615.203125 63.488281 C 1730.511719 152.785156 1741.242188 306.9375 1639.15625 407.808594 L 675.425781 1360.015625 L 1639.15625 2312.222656 C 1741.242188 2413.089844 1730.511719 2567.246094 1615.203125 2656.542969 C 1499.871094 2745.816406 1323.636719 2736.449219 1221.550781 2635.589844 L 94.195312 1521.691406 C 0.773438 1429.390625 0.773438 1290.628906 94.195312 1198.328125 L 1221.550781 84.4375 C 1276.65625 30 1353.390625 2.207031 1430.453125 2.207031 " fill-opacity="1" fill-rule="nonzero"/></g></g></g><g clip-path="url(#4c97167682)"><g transform="matrix(1, 0, 0, 1, 1138, -0.000000000000468958)"><g clip-path="url(#4ce27e89d8)"><path fill="#ffffff" d="M 311.542969 2.207031 C 245.835938 2.207031 179.863281 22.402344 126.792969 63.488281 C 11.484375 152.785156 0.753906 306.9375 102.839844 407.808594 L 1066.570312 1360.015625 L 102.839844 2312.222656 C 0.753906 2413.089844 11.484375 2567.246094 126.792969 2656.542969 C 242.125 2745.816406 418.359375 2736.449219 520.445312 2635.589844 L 1647.800781 1521.691406 C 1741.222656 1429.390625 1741.222656 1290.628906 1647.800781 1198.328125 L 520.445312 84.4375 C 465.339844 30 388.605469 2.207031 311.542969 2.207031 " fill-opacity="1" fill-rule="nonzero"/></g></g></g></g></g></svg>